<svg width="17" height="20" viewBox="0 0 17 20" fill="none" xmlns="http://www.w3.org/2000/svg">
<path d="M15.8147 15.1C15.3822 16.0575 15.1759 16.485 14.6184 17.3313C13.8422 18.5125 12.7484 19.985 11.3922 19.9975C10.1872 20.0088 9.87716 19.2138 8.24216 19.2225C6.60715 19.2313 6.26466 20.0113 5.05966 20C3.70341 19.9875 2.66716 18.6588 1.88965 17.4763C-0.280345 14.1713 -0.507845 10.2938 0.830905 8.2325C1.78216 6.76625 3.28341 5.91 4.69591 5.91C6.13341 5.91 7.0359 6.6975 8.22466 6.6975C9.37716 6.6975 10.0797 5.90875 11.7422 5.90875C12.9984 5.90875 14.3297 6.5925 15.2772 7.77375C12.1709 9.4775 12.6759 13.9138 15.8147 15.1Z" fill="#FDCC0C"/>
<path d="M1.00001 15.1C1.43251 16.0575 1.63876 16.485 2.19626 17.3313C2.97251 18.5125 4.06626 19.985 5.42251 19.9975C6.62751 20.0088 6.93751 19.2138 8.57251 19.2225C10.2075 19.2313 10.55 20.0113 11.755 20C13.1113 19.9875 14.1475 18.6588 14.925 17.4763C17.095 14.1713 17.3225 10.2938 15.9838 8.2325C15.0325 6.76625 13.5313 5.91 12.1188 5.91C10.6813 5.91 9.77876 6.6975 8.59001 6.6975C7.43751 6.6975 6.73501 5.90875 5.07251 5.90875C3.81626 5.90875 2.48501 6.5925 1.53751 7.77375C4.64376 9.4775 4.13876 13.9138 1.00001 15.1Z" fill="#FDCC0C"/>
<path d="M11.1621 3.37375C11.8446 2.49875 12.3621 1.2625 12.1734 0C11.0596 0.07625 9.75714 0.785 8.99589 1.70875C8.30589 2.5475 7.73589 3.79125 7.95714 5C9.17339 5.0375 10.4309 4.31125 11.1621 3.37375Z" fill="#FDCC0C"/>
</svg>
