<svg width="19" height="19" viewBox="0 0 19 19" fill="none" xmlns="http://www.w3.org/2000/svg">
<path d="M18.2353 2.38235C17.8824 2.02941 17.4118 1.79412 17.0588 1.79412C16.9412 1.32353 16.8235 0.970588 16.4706 0.617647C15.6471 -0.205882 14.2353 -0.205882 13.4118 0.617647C12.7059 1.32353 12.5882 2.5 13.1765 3.32353L10.5882 5.79412L9.29412 4.5L6.70588 7.08824C6.47059 6.97059 6.11765 6.97059 5.88235 6.97059C2.58824 6.97059 0 9.55882 0 12.8529C0 16.1471 2.58824 18.7353 5.88235 18.7353C9.17647 18.7353 11.7647 16.1471 11.7647 12.8529C11.7647 12.6176 11.7647 12.2647 11.6471 12.0294L14.2353 9.44118L12.9412 8.14706L15.4118 5.67647C16.2353 6.26471 17.4118 6.14706 18.1176 5.44118C19.0588 4.61765 19.0588 3.20588 18.2353 2.38235Z" fill="#4AB8FF"/>
</svg>
