<svg width="16" height="20" viewBox="0 0 16 20" fill="none" xmlns="http://www.w3.org/2000/svg">
<path d="M10.054 7.86625C10.054 7.86625 10.9865 2.38125 7.18151 0C7.06686 1.90607 6.14584 3.6731 4.64901 4.85875C3.02401 6.2875 -0.0322429 9.5 0.000257137 12.925C-0.0235582 15.9116 1.64815 18.6534 4.31401 20C4.40833 18.6645 5.03639 17.4233 6.05651 16.5562C6.92089 15.8915 7.48206 14.9074 7.61401 13.825C9.88968 15.0348 11.3615 17.3521 11.489 19.9263V19.9425C14.0042 18.7904 15.6599 16.3241 15.774 13.56C16.044 10.3425 14.2815 5.9675 12.7178 4.5375C12.1274 5.85556 11.2106 7.00126 10.054 7.86625Z" fill="#FF0000"/>
</svg>
